<svg xmlns="http://www.w3.org/2000/svg" width="256" height="256" viewBox="0 0 100 100"><rect width="100" height="100" rx="0" fill="#ede3ce"></rect><path fill="#be7015" d="M20.56 26.12L20.56 26.12Q23.85 26.12 31.98 25.83Q40.11 25.54 44.21 25.54L44.21 25.54Q44.51 27.66 45.35 31.14Q46.19 34.62 46.34 35.50L46.34 35.50Q45.97 35.86 45.02 35.86Q44.07 35.86 43.99 35.35L43.99 35.35Q42.90 31.32 40.92 30.19Q38.94 29.05 35.50 29.05L35.50 29.05L30.59 29.05Q24.29 29.05 24.15 30.00L24.15 30.00Q23.78 31.76 23.78 36.16L23.78 36.16L23.78 47.88Q23.78 48.32 26.93 48.32L26.93 48.32L30.81 48.32Q32.86 48.32 33.78 48.32Q34.69 48.32 35.72 48.02Q36.74 47.73 37.04 47.66Q37.33 47.58 37.81 46.70Q38.28 45.83 38.35 45.42Q38.43 45.02 38.87 43.33L38.87 43.33Q38.94 42.82 39.97 42.82L39.97 42.82Q40.84 42.82 41.21 43.19L41.21 43.19L41.21 57.03Q40.92 57.32 40.04 57.32L40.04 57.32Q39.09 57.32 38.87 56.74L38.87 56.74Q38.35 54.76 37.99 53.77Q37.62 52.78 37.44 52.60Q37.26 52.42 36.82 52.12L36.82 52.12Q35.86 51.54 29.05 51.54L29.05 51.54Q23.78 51.54 23.78 52.20L23.78 52.20L23.78 63.55Q23.78 68.31 24.44 70.21L24.44 70.21Q24.66 70.95 29.42 70.95L29.42 70.95L32.93 70.95Q39.75 70.95 42.16 69.70L42.16 69.70Q43.26 69.12 44.62 67.10Q45.97 65.09 46.78 62.30L46.78 62.30Q46.92 61.87 47.80 61.87L47.80 61.87Q49.19 61.87 49.63 62.30L49.63 62.30Q49.27 63.26 48.50 65.34Q47.73 67.43 47.29 68.71Q46.85 70.00 46.34 71.68Q45.83 73.36 45.68 74.46L45.68 74.46Q41.94 74.46 33.89 74.32Q25.83 74.17 20.70 74.17L20.70 74.17L11.84 74.39Q11.62 74.17 11.62 73.22Q11.62 72.27 11.84 72.27L11.84 72.27Q12.79 72.27 14.66 71.75Q16.53 71.24 16.89 70.58L16.89 70.58Q17.41 69.70 17.41 63.70L17.41 63.70L17.41 36.01Q17.41 31.69 16.89 29.71L16.89 29.71Q16.67 29.13 14.73 28.61Q12.79 28.10 11.84 28.10L11.84 28.10Q11.55 28.10 11.55 27.22L11.55 27.22Q11.55 26.27 11.84 25.98L11.84 25.98Q15.65 26.12 20.56 26.12ZM54.47 25.98L63.26 26.12Q65.45 26.12 68.46 25.98Q71.46 25.83 73.58 25.83L73.58 25.83Q76.00 25.83 78.45 26.56Q80.91 27.29 83.22 28.76Q85.52 30.22 86.99 32.93Q88.45 35.64 88.45 39.23L88.45 39.23Q88.45 41.36 87.54 43.81Q86.62 46.26 84.86 48.57Q83.11 50.88 80.14 52.38Q77.17 53.88 73.51 53.88L73.51 53.88Q69.41 53.88 67.87 51.83L67.87 51.83Q67.43 51.32 67.65 50.15L67.65 50.15Q67.72 49.85 67.87 49.93L67.87 49.93Q70.07 50.73 72.78 50.73L72.78 50.73Q76.44 50.73 79.08 47.66Q81.71 44.58 81.71 40.33L81.71 40.33Q81.71 35.13 79.44 32.09Q77.17 29.05 72.41 29.05L72.41 29.05Q69.12 29.05 67.29 29.57L67.29 29.57Q66.92 29.64 66.77 30.11Q66.63 30.59 66.52 32.35Q66.41 34.11 66.41 37.62L66.41 37.62L66.41 63.77Q66.41 68.68 66.99 70.14L66.99 70.14Q67.36 71.09 69.59 71.68Q71.83 72.27 72.78 72.27L72.78 72.27Q73.07 72.27 73.07 73.29L73.07 73.29Q73.07 73.95 72.92 74.39L72.92 74.39Q65.60 74.02 63.40 74.02L63.40 74.02L54.47 74.39Q54.25 74.17 54.25 73.07L54.25 73.07Q54.25 72.12 54.47 72.12L54.47 72.12Q55.49 72.12 57.32 71.68Q59.16 71.24 59.52 70.58L59.52 70.58Q60.03 69.70 60.03 63.70L60.03 63.70L60.03 36.01Q60.03 31.69 59.52 29.71L59.52 29.71Q59.30 29.13 57.36 28.61Q55.42 28.10 54.47 28.10L54.47 28.10Q54.17 28.10 54.17 27.22L54.17 27.22Q54.17 26.27 54.47 25.98L54.47 25.98Z"></path></svg>