<?xml version="1.0" encoding="UTF-8"?>
<svg version="1.1" xmlns="http://www.w3.org/2000/svg" width="48" height="48">
<path d="M0 0 C15.84 0 31.68 0 48 0 C48 15.84 48 31.68 48 48 C32.16 48 16.32 48 0 48 C0 32.16 0 16.32 0 0 Z " fill="#ECE0CA" transform="translate(0,0)"/>
<path d="M0 0 C2.22808159 -0.10853983 4.45769932 -0.18583307 6.6875 -0.25 C7.92886719 -0.29640625 9.17023437 -0.3428125 10.44921875 -0.390625 C14.57962236 0.06376484 16.19972826 0.96905454 19 4 C18.92524733 8.26090222 18.36999926 10.44500111 16 14 C12.52674819 15.1577506 9.63932552 15.06866652 6 15 C6 17.31 6 19.62 6 22 C6.99 22 7.98 22 9 22 C9 22.66 9 23.32 9 24 C6.03 24 3.06 24 0 24 C0 23.34 0 22.68 0 22 C0.99 22 1.98 22 3 22 C3 15.4 3 8.8 3 2 C2.01 2 1.02 2 0 2 C0 1.34 0 0.68 0 0 Z " fill="#C07720" transform="translate(26,12)"/>
<path d="M0 0 C1.90845703 0.04060547 1.90845703 0.04060547 3.85546875 0.08203125 C5.31919922 0.13423828 5.31919922 0.13423828 6.8125 0.1875 C6.8125 2.4975 6.8125 4.8075 6.8125 7.1875 C3.8125 6.1875 3.8125 6.1875 1.8125 3.1875 C-0.089494 2.71191794 -0.089494 2.71191794 -2.1875 2.8125 C-3.239375 2.80089844 -3.239375 2.80089844 -4.3125 2.7890625 C-6.59808594 3.046586 -6.59808594 3.046586 -8.1875 6.1875 C-8.54255425 8.7932687 -8.54255425 8.7932687 -8.5 11.625 C-8.51675781 12.57246094 -8.53351562 13.51992188 -8.55078125 14.49609375 C-8.12891172 17.62155729 -7.41750384 18.97800194 -5.1875 21.1875 C-1.6875 21.85416667 -1.6875 21.85416667 1.8125 21.1875 C3.65565671 19.2870533 3.65565671 19.2870533 4.8125 17.1875 C5.4725 17.1875 6.1325 17.1875 6.8125 17.1875 C5.73848892 20.10267292 5.03439824 21.96560176 2.8125 24.1875 C0.5703125 24.48828125 0.5703125 24.48828125 -2.0625 24.5 C-2.92617187 24.51675781 -3.78984375 24.53351562 -4.6796875 24.55078125 C-7.6744151 24.11696557 -8.99861256 23.2450542 -11.1875 21.1875 C-13.17891026 16.80639744 -13.62208139 12.9678953 -13.1875 8.1875 C-11.875 5.4375 -11.875 5.4375 -10.1875 3.1875 C-9.8059375 2.64996094 -9.424375 2.11242187 -9.03125 1.55859375 C-6.14602953 -0.58698333 -3.52326829 -0.09697069 0 0 Z " fill="#C17925" transform="translate(16.1875,11.8125)"/>
<path d="M0 0 C3.375 -0.125 3.375 -0.125 7 0 C9 2 9 2 9.3125 4.9375 C9 8 9 8 7.875 9.875 C5.21965017 11.4682099 3.03210482 11.20214032 0 11 C0 7.37 0 3.74 0 0 Z " fill="#E9DABF" transform="translate(32,14)"/>
<path d="M0 0 C4 2 4 2 5 3 C4.62056512 7.09789669 4.30694043 9.53958935 2 13 C-1.47325181 14.1577506 -4.36067448 14.06866652 -8 14 C-8 13.67 -8 13.34 -8 13 C-6.02 13 -4.04 13 -2 13 C-2 12.34 -2 11.68 -2 11 C-1.34 11 -0.68 11 0 11 C0 7.37 0 3.74 0 0 Z " fill="#C17923" transform="translate(40,13)"/>
<path d="M0 0 C0 2.31 0 4.62 0 7 C-3 6 -3 6 -5 3 C-8.56769552 2.26393501 -8.56769552 2.26393501 -12 2 C-12 1.67 -12 1.34 -12 1 C-7.93631321 0.22596442 -4.13574827 -0.0984702 0 0 Z " fill="#C7883C" transform="translate(23,12)"/>
<path d="M0 0 C0.66 0 1.32 0 2 0 C0.55369928 4.57995227 0.55369928 4.57995227 -1.8125 6.375 C-4.5280149 7.1508614 -6.30798849 6.74778098 -9 6 C-9 5.67 -9 5.34 -9 5 C-7.88625 4.731875 -6.7725 4.46375 -5.625 4.1875 C-1.78159049 3.34190981 -1.78159049 3.34190981 0 0 Z " fill="#C7873B" transform="translate(21,29)"/>
<path d="M0 0 C0.99 0 1.98 0 3 0 C2.6875 1.9375 2.6875 1.9375 2 4 C-1.47325181 5.1577506 -4.36067448 5.06866652 -8 5 C-8 4.67 -8 4.34 -8 4 C-6.02 4 -4.04 4 -2 4 C-2 3.34 -2 2.68 -2 2 C-1.34 2 -0.68 2 0 2 C0 1.34 0 0.68 0 0 Z " fill="#C7893E" transform="translate(40,22)"/>
</svg>
