<?xml version="1.0" standalone="no"?>
<!DOCTYPE svg PUBLIC "-//W3C//DTD SVG 20010904//EN"
 "http://www.w3.org/TR/2001/REC-SVG-20010904/DTD/svg10.dtd">
<svg version="1.0" xmlns="http://www.w3.org/2000/svg"
 width="300.000000pt" height="300.000000pt" viewBox="0 0 300.000000 300.000000"
 preserveAspectRatio="xMidYMid meet">

<g transform="translate(0.000000,300.000000) scale(0.100000,-0.100000)"
fill="#000000" stroke="none">
<path d="M0 1500 l0 -1500 1500 0 1500 0 0 1500 0 1500 -1500 0 -1500 0 0
-1500z m1654 1434 c9 -3 16 -12 16 -20 0 -11 -19 -14 -87 -14 -49 0 -99 -3
-113 -6 -24 -5 -24 -5 -5 7 44 28 152 47 189 33z m-281 -61 c-7 -2 -21 -2 -30
0 -10 3 -4 5 12 5 17 0 24 -2 18 -5z m237 -23 c-8 -5 -51 -9 -95 -8 -65 1 -73
2 -40 8 64 11 153 11 135 0z m27 -111 c112 -15 286 -61 371 -98 115 -48 254
-135 349 -216 48 -41 93 -75 100 -75 7 0 13 -8 13 -17 0 -9 7 -25 17 -35 40
-44 45 1 7 58 -35 51 -107 130 -116 126 -5 -1 -8 4 -8 12 0 18 -69 73 -158
126 -40 23 -71 44 -69 46 2 2 61 -26 131 -62 70 -36 130 -63 133 -60 3 3 -8
16 -23 30 l-29 25 29 -3 c16 -2 33 -10 38 -20 5 -9 14 -14 19 -10 6 3 17 -3
25 -15 8 -12 24 -21 35 -21 10 0 19 -4 19 -9 0 -6 24 -36 54 -68 63 -68 160
-211 210 -310 81 -163 136 -368 157 -596 15 -169 8 -276 -31 -422 -17 -67 -29
-132 -26 -147 3 -15 1 -30 -4 -33 -5 -3 -16 -30 -24 -60 -9 -29 -27 -67 -41
-83 -14 -17 -25 -39 -25 -51 0 -33 -150 -271 -171 -271 -5 0 -23 -21 -39 -46
-31 -50 -102 -120 -131 -129 -9 -3 -25 -17 -34 -31 -9 -14 -36 -34 -61 -44
-24 -11 -44 -24 -44 -30 0 -6 -16 -18 -35 -26 -20 -8 -38 -21 -42 -29 -3 -8
-14 -15 -24 -15 -11 0 -41 -11 -67 -24 -48 -24 -203 -76 -225 -75 -7 0 30 15
81 34 104 39 232 103 232 117 0 21 -32 18 -61 -6 -17 -14 -36 -26 -42 -26 -7
0 -38 -14 -70 -31 -101 -53 -72 -26 36 35 116 65 252 165 252 185 0 8 28 41
63 74 34 33 62 64 62 69 0 15 -27 8 -46 -13 -27 -30 -120 -107 -110 -91 13 22
-15 13 -53 -16 -20 -16 -48 -37 -64 -47 -24 -15 -27 -16 -21 -1 3 9 4 16 0 16
-3 0 -53 -25 -112 -56 -70 -36 -110 -52 -116 -46 -7 7 -26 4 -55 -9 -25 -10
-47 -19 -51 -19 -18 0 54 58 128 102 101 60 220 146 220 159 0 18 -22 9 -62
-25 -56 -48 -238 -130 -253 -114 -3 3 18 17 45 32 28 15 70 44 95 64 24 20 63
50 85 65 23 16 40 31 37 34 -7 7 -110 -52 -127 -72 -7 -8 -21 -15 -31 -15 -10
0 -21 -5 -24 -10 -7 -11 -105 -63 -105 -56 0 2 32 26 72 52 40 26 77 51 83 56
5 4 21 17 35 27 14 11 22 23 17 27 -4 4 -20 -4 -35 -18 -15 -14 -43 -28 -63
-32 -19 -3 -51 -17 -69 -31 -19 -14 -40 -25 -48 -25 -7 0 19 22 60 50 84 57
133 99 125 107 -3 3 20 26 52 53 128 107 256 276 315 418 123 293 104 657 -52
992 -42 90 -179 259 -214 264 -10 1 -28 12 -40 23 -119 110 -377 176 -588 152
-130 -15 -326 -89 -462 -175 -21 -14 -43 -22 -48 -19 -5 3 -14 -4 -20 -16 -7
-12 -28 -35 -48 -53 -89 -76 -202 -209 -202 -237 0 -12 -21 -61 -51 -124 l-20
-40 7 35 c18 94 89 224 172 312 54 58 197 168 218 168 8 0 78 34 155 76 77 42
161 82 187 88 25 7 48 18 50 25 5 15 -19 12 -93 -9 -58 -17 -115 -28 -115 -23
0 2 5 13 10 24 13 24 -1 25 -60 4 -23 -8 -45 -15 -49 -15 -15 1 48 31 95 45
28 9 59 22 70 31 18 14 17 15 -18 10 -21 -2 -40 0 -43 5 -4 5 -2 9 2 9 5 0 18
7 29 16 18 15 18 15 -6 11 -14 -3 -40 -10 -58 -15 -19 -6 -30 -7 -27 -1 4 5 0
9 -7 9 -7 1 11 13 40 28 29 15 50 31 46 35 -4 4 -2 7 5 7 6 0 24 9 39 20 47
34 204 48 339 29z m-531 -172 c-28 -16 -76 -40 -106 -54 -40 -19 -89 -60 -177
-149 -111 -110 -138 -144 -115 -144 4 0 39 32 77 70 69 70 102 88 90 51 -4
-13 -1 -20 11 -23 14 -2 6 -15 -34 -56 -29 -29 -52 -56 -52 -59 0 -3 -11 -14
-25 -25 -14 -11 -25 -23 -25 -27 0 -5 -21 -45 -46 -90 -31 -54 -50 -78 -55
-70 -5 8 -18 -9 -38 -50 -17 -35 -35 -69 -41 -75 -5 -7 -7 -16 -3 -19 3 -4 2
-7 -4 -7 -18 0 -38 -166 -25 -203 13 -37 26 -231 14 -203 -6 13 -11 16 -16 8
-9 -15 18 -168 38 -216 8 -20 11 -34 6 -31 -11 7 -12 -1 -4 -33 4 -14 12 -21
20 -18 7 3 22 -9 33 -27 11 -18 36 -53 56 -79 34 -47 34 -47 8 -37 -14 5 -28
8 -30 5 -13 -13 49 -80 137 -148 l35 -27 -58 23 c-66 26 -100 56 -149 127 -32
48 -56 59 -50 24 3 -13 -1 -16 -12 -12 -11 4 -18 -1 -22 -19 -8 -29 14 -77 32
-70 6 2 22 -17 34 -45 29 -61 118 -144 163 -153 17 -3 52 -20 77 -36 44 -29
77 -40 65 -20 -9 14 11 12 43 -4 39 -19 112 -29 112 -15 0 7 9 5 25 -5 13 -9
39 -16 56 -16 63 0 151 -80 202 -183 41 -85 34 -123 -40 -215 -48 -58 -77 -75
-142 -83 -31 -4 -84 -12 -117 -19 -54 -11 -68 -11 -115 4 -61 20 -299 175
-322 210 -8 12 -65 67 -127 122 -61 54 -137 131 -169 169 -102 123 -202 292
-180 306 14 9 -1 41 -17 35 -8 -3 -14 -4 -14 -2 0 3 -3 12 -7 22 -4 12 -3 15
5 10 7 -4 12 -1 12 8 0 9 -6 13 -14 10 -27 -10 -73 190 -81 351 -4 103 -2 96
20 -62 13 -90 23 -38 18 90 -3 72 -1 173 5 222 11 92 54 258 73 281 6 7 8 17
5 22 -2 4 15 60 39 123 31 83 47 113 58 111 9 -1 18 7 22 18 4 12 9 20 11 17
2 -2 -6 -31 -18 -65 -18 -47 -20 -64 -11 -73 9 -9 15 -6 24 14 7 15 20 27 29
27 9 0 22 6 28 12 7 7 1 -19 -14 -57 -58 -150 -93 -285 -75 -285 11 0 23 30
56 133 17 55 35 91 46 98 23 12 23 12 4 -41 -18 -50 -18 -50 -6 -50 5 0 17 20
28 45 10 25 23 45 30 45 13 0 27 35 19 48 -6 11 29 64 40 61 5 -1 18 14 30 34
11 21 39 58 62 85 23 26 65 75 93 109 28 33 59 63 70 66 10 3 19 11 19 19 0 7
15 20 33 29 17 8 38 28 45 42 9 18 21 27 38 27 13 0 59 17 102 39 42 21 88 41
102 45 24 7 24 6 6 -8 -11 -9 -17 -18 -14 -22 7 -7 88 34 87 44 -3 18 2 22 15
10 11 -11 5 -18 -38 -41z m-377 17 c-54 -59 -182 -180 -197 -188 -9 -4 33 42
94 103 61 61 115 111 119 111 5 0 -2 -12 -16 -26z m-185 -73 c-21 -42 -42 -58
-50 -36 -7 18 2 31 38 50 12 7 24 13 25 14 1 1 -5 -12 -13 -28z m576 -85 c0
-3 -4 -8 -10 -11 -5 -3 -10 -1 -10 4 0 6 5 11 10 11 6 0 10 -2 10 -4z m-1063
-748 c-3 -7 -5 -2 -5 12 0 14 2 19 5 13 2 -7 2 -19 0 -25z m2355 -60 c-9 -9
-12 -7 -12 12 0 19 3 21 12 12 9 -9 9 -15 0 -24z m8 -230 c-7 -61 -7 -59 -8
32 0 63 3 84 8 63 4 -17 4 -60 0 -95z m-23 -160 c-3 -8 -6 -5 -6 6 -1 11 2 17
5 13 3 -3 4 -12 1 -19z m-10 -50 c-3 -8 -6 -5 -6 6 -1 11 2 17 5 13 3 -3 4
-12 1 -19z m-76 -205 c-46 -87 -139 -218 -149 -209 -3 4 6 19 20 34 31 32 129
186 148 231 7 17 15 30 17 27 3 -2 -14 -40 -36 -83z m-230 -314 c-24 -20 -41
-24 -41 -11 0 9 53 40 60 35 3 -3 -6 -13 -19 -24z m-131 -117 c0 -13 -79 -54
-93 -49 -6 2 2 11 18 18 17 8 36 19 43 26 15 15 32 17 32 5z m150 -287 c0 -2
-10 -9 -22 -15 -22 -11 -22 -10 -4 4 21 17 26 19 26 11z"/>
<path d="M2340 2337 c0 -8 7 -17 15 -21 8 -3 15 -2 15 3 0 5 -7 14 -15 21 -12
10 -15 10 -15 -3z"/>
<path d="M2160 2322 c0 -14 59 -66 67 -59 7 8 -23 44 -49 58 -10 5 -18 6 -18
1z"/>
<path d="M2263 636 c-35 -35 -63 -67 -63 -71 0 -12 78 55 110 95 47 60 23 47
-47 -24z"/>
<path d="M2117 598 c-25 -29 -43 -55 -41 -57 6 -6 104 90 104 101 0 19 -21 4
-63 -44z"/>
<path d="M2546 596 c-35 -43 -45 -66 -28 -66 11 0 72 81 72 97 0 20 -5 17 -44
-31z"/>
<path d="M562 2056 c-13 -21 -21 -43 -20 -48 5 -15 50 52 46 70 -2 12 -10 6
-26 -22z"/>
<path d="M300 1774 c0 -8 5 -12 10 -9 6 4 8 11 5 16 -9 14 -15 11 -15 -7z"/>
<path d="M310 1275 c0 -19 5 -35 10 -35 6 0 10 16 10 35 0 19 -4 35 -10 35 -5
0 -10 -16 -10 -35z"/>
</g>
</svg>
